<svg width="40" height="40" viewBox="0 0 40 40" fill="none" xmlns="http://www.w3.org/2000/svg">
    <g clip-path="url(#clip0_811_7220)">
    <rect width="40" height="40" rx="20" fill="white"/>
    <path d="M26.787 32.6576C26.8582 33.6303 27.5506 33.7054 28.3258 35.5502C29.3166 37.9074 29.56 40.1973 30.0916 42.7157C30.7546 45.858 32.614 46.0815 33.4483 45.9104C34.9514 45.6014 35.6441 43.8037 35.2361 41.8708C33.7307 34.7379 30.8775 31.3643 28.1218 31.3903C27.6088 31.3951 26.7177 31.7099 26.787 32.6576Z" fill="#DEE4EB"/>
    <path d="M33.4484 45.9104C33.1697 45.9674 32.7768 45.9806 32.3526 45.8556C33.7094 45.4291 34.3186 43.7111 33.9303 41.8707C32.5705 35.4287 30.1114 32.0527 27.6182 31.4787C27.796 31.4185 27.9747 31.3916 28.1221 31.3902C30.8775 31.3642 33.7307 34.7379 35.2362 41.8707C35.6442 43.8036 34.9515 45.6013 33.4484 45.9104Z" fill="#C7D0DC"/>
    <path d="M12.2102 32.6861C12.139 33.6586 11.4464 33.7339 10.671 35.5788C9.84414 37.5462 9.53784 39.4668 9.14982 41.5128C9.07323 41.9181 8.99309 42.3279 8.9053 42.7443C8.24232 45.8866 6.383 46.11 5.54871 45.9387C4.04562 45.6299 3.35286 43.8322 3.76084 41.899C5.10383 35.5363 7.51933 32.1648 9.98119 31.5296C10.279 31.4529 10.5777 31.4158 10.875 31.4188C11.3882 31.4234 12.2794 31.7385 12.2102 32.6861Z" fill="#DEE4EB"/>
    <path d="M12.2112 32.6862C12.14 33.6586 11.4474 33.734 10.672 35.5788C9.84514 37.5462 9.53884 39.4669 9.15082 41.5129C9.05364 41.1844 8.96453 40.8464 8.88369 40.4991C8.84987 40.3556 8.81786 40.2105 8.78763 40.0638C8.48782 38.6251 8.32617 37.0328 8.32617 35.2937C8.32617 33.8161 8.91638 32.5413 9.98219 31.5296C10.28 31.4529 10.5787 31.4158 10.876 31.4188C11.3892 31.4235 12.2804 31.7385 12.2112 32.6862Z" fill="#C7D0DC"/>
    <path d="M29.7608 35.2936C29.7608 37.0327 29.5992 38.625 29.2992 40.0637C29.2691 40.2104 29.2371 40.3556 29.2032 40.4991C27.8327 46.3872 24.0854 49.5754 19.6778 49.5754C15.2701 49.5754 11.5228 46.3872 10.1522 40.4991C10.1185 40.3556 10.0864 40.2104 10.0563 40.0637C9.75633 38.625 9.59473 37.0327 9.59473 35.2936C9.59473 31.425 13.6408 28.9455 19.6778 28.9455C25.7146 28.9455 29.7608 31.425 29.7608 35.2936Z" fill="#DEE4EB"/>
    <path d="M29.7614 35.2936C29.7614 37.0327 29.5999 38.625 29.2999 40.0637C29.2698 40.2104 29.2378 40.3556 29.2042 40.4991C27.8334 46.3872 24.0861 49.5754 19.6785 49.5754C16.3568 49.5754 13.4099 47.7647 11.5732 44.3521C12.8394 45.3784 14.2444 46.196 15.778 46.6436C18.2466 47.3646 21.0787 47.0115 23.0607 45.2989C24.1825 44.3294 24.9559 43.0103 25.4689 41.5673C25.5185 41.4287 25.5651 41.2889 25.61 41.1482C25.8407 40.4191 26.0095 39.6647 26.1265 38.9127C26.3449 37.5109 26.407 36.0572 26.0663 34.683C25.7253 33.309 24.9426 32.0159 23.7738 31.313C23.038 30.8705 22.193 30.6804 21.3597 30.5218C18.9981 30.0726 16.6015 29.8292 14.2021 29.7944C15.731 29.2436 17.585 28.9457 19.6785 28.9457C25.7155 28.9457 29.7614 31.425 29.7614 35.2936Z" fill="#C7D0DC"/>
    <path d="M15.5762 27.7456V30.1683C15.5762 31.4528 17.4127 32.4941 19.678 32.4941C21.9434 32.4941 23.7798 31.4528 23.7798 30.1683V27.7456H15.5762Z" fill="#CBD3DB"/>
    <path d="M23.7798 27.7456V29.8441C22.6334 30.3826 21.3295 30.6065 19.678 30.6065C18.2029 30.6065 16.7224 30.4273 15.5762 29.8874V27.7456H23.7798Z" fill="#ABB7C6"/>
    <path d="M24.0241 13.8782C24.0241 15.6106 22.0784 17.0147 19.6782 17.0147C17.2779 17.0147 15.332 15.6106 15.332 13.8782C15.332 12.1458 15.332 10.7417 19.6782 10.7417C24.0241 10.7417 24.0241 12.1458 24.0241 13.8782Z" fill="#CBD3DB"/>
    <path d="M7.55176 24.0504C7.55176 25.5306 8.36201 26.8925 9.66392 27.5968C11.3189 28.4919 14.2601 29.3215 19.4778 29.3215C24.6954 29.3215 27.6367 28.4919 29.2916 27.5968C30.5935 26.8925 31.4039 25.5306 31.4039 24.0504V17.5607C31.4039 16.0805 30.5935 14.7186 29.2916 14.0146C27.6367 13.1195 24.6954 12.2899 19.4778 12.2899C14.2601 12.2899 11.3189 13.1195 9.66392 14.0146C8.36201 14.7186 7.55176 16.0805 7.55176 17.5607V24.0504Z" fill="#DEE4EB"/>
    <path d="M31.3439 17.4798V23.9697C31.3439 25.4499 30.5335 26.8118 29.2318 27.5161C27.5769 28.4109 24.6354 29.2406 19.4178 29.2406C14.2002 29.2406 11.259 28.4109 9.60384 27.5161C8.94645 27.1605 8.41445 26.6373 8.04883 26.0153C10.1972 27.3269 12.8841 27.6965 15.4397 27.7264C17.2371 27.7472 19.0777 27.6202 20.7294 26.9104C23.7289 25.6215 25.7191 22.3996 25.762 19.1349C25.7903 16.9978 25.0396 14.2181 23.6935 12.4312C26.3573 12.737 28.0971 13.3198 29.2318 13.9336C30.5335 14.6379 31.3439 15.9998 31.3439 17.4798Z" fill="#C7D0DC"/>
    <path d="M19.6778 28.1472C14.4661 28.1472 11.7908 27.292 10.4642 26.5745C9.56948 26.0905 9.01367 25.1569 9.01367 24.1383V19.1593C9.01367 18.1407 9.56948 17.2072 10.4642 16.7232C11.7908 16.0057 14.4661 15.1505 19.6778 15.1505C24.8893 15.1505 27.5647 16.0057 28.8912 16.7232C29.786 17.2072 30.3416 18.1407 30.3416 19.1593V24.1383C30.3416 25.1569 29.786 26.0905 28.8912 26.5743C27.5647 27.292 24.8893 28.1472 19.6778 28.1472Z" fill="#23445E"/>
    <path d="M30.3411 19.1593V24.1381C30.3411 25.1569 29.7854 26.0905 28.8906 26.5743C27.5642 27.292 24.8887 28.1469 19.6772 28.1469C14.4655 28.1469 11.7903 27.292 10.4636 26.5743C9.60338 26.109 9.05638 25.2281 9.01562 24.2554C12.1246 26.1792 16.6027 27.024 20.124 26.6872C21.7917 26.5277 23.5428 26.0299 24.6082 24.7689C25.1637 24.1114 25.4854 23.2947 25.6361 22.4514C25.6718 22.2527 25.6978 22.0526 25.7149 21.8528C25.7734 21.1822 25.7404 20.5094 25.6711 19.8385C25.632 19.4605 25.5814 19.0831 25.529 18.707C25.4066 17.8329 25.271 16.9482 24.914 16.1371C24.8111 15.9032 24.6875 15.6749 24.5433 15.4604C26.7101 15.7741 28.063 16.2755 28.8906 16.7234C29.7854 17.2072 30.3411 18.1407 30.3411 19.1593Z" fill="#193242"/>
    <path d="M16.604 21.799C16.604 22.9688 15.6558 22.3867 14.4861 22.3867C13.3164 22.3867 12.3682 22.9688 12.3682 21.799C12.3682 20.6292 13.3164 19.6811 14.4861 19.6811C15.6558 19.6811 16.604 20.6292 16.604 21.799Z" fill="#7FD5DC"/>
    <path d="M25.716 21.8528C25.6988 22.0526 25.6729 22.2527 25.6372 22.4513C25.3993 22.418 25.1406 22.3867 24.8698 22.3867C23.7003 22.3867 22.752 22.9688 22.752 21.799C22.752 20.6292 23.7003 19.6811 24.8698 19.6811C25.1538 19.6811 25.4248 19.737 25.6722 19.8385C25.7415 20.5094 25.7744 21.1821 25.716 21.8528Z" fill="#7FD5DC"/>
    <path d="M26.9875 21.7991C26.9875 22.6981 26.4272 22.5624 25.6367 22.4514C25.6724 22.2527 25.6984 22.0527 25.7155 21.8528C25.774 21.1822 25.741 20.5095 25.6717 19.8386C26.4434 20.1545 26.9875 20.9133 26.9875 21.7991Z" fill="#67CCC7"/>
    <path d="M20.9753 24.4318C20.9753 24.7902 20.83 25.1145 20.5951 25.3493C20.3603 25.5841 20.036 25.7295 19.6776 25.7295C18.9608 25.7295 18.3799 25.1486 18.3799 24.4318C18.3799 24.3808 18.4005 24.3342 18.4341 24.3008C18.4677 24.2672 18.5141 24.2463 18.5651 24.2463H20.7899C20.8921 24.2463 20.9753 24.3295 20.9753 24.4318Z" fill="#7FD5DC"/>
    <path d="M10.9413 15.1155C11.0266 15.0779 11.1131 15.0431 11.2006 15.0109C11.1688 15.0225 11.137 15.0341 11.1051 15.0459C11.5833 14.8714 12.0768 14.7341 12.5729 14.6215C13.11 14.4995 13.6538 14.4096 14.1994 14.3356C14.5592 14.2869 14.9199 14.2452 15.2809 14.2072C15.3325 14.1975 15.378 14.1764 15.4175 14.1437C15.4615 14.1182 15.4969 14.0832 15.5237 14.0389C15.5546 13.9953 15.5724 13.9476 15.5774 13.8956C15.5916 13.8442 15.5919 13.792 15.5782 13.7392C15.5522 13.643 15.498 13.5488 15.4099 13.4964C15.3794 13.4818 15.3489 13.467 15.3184 13.4524C15.2499 13.4304 15.1806 13.4269 15.1103 13.442C14.7698 13.4779 14.4297 13.5171 14.0903 13.5623C13.7899 13.6024 13.4902 13.6469 13.1916 13.6991C12.9166 13.747 12.6428 13.8013 12.3707 13.8636C12.1124 13.923 11.8558 13.9898 11.6015 14.0644C11.299 14.1534 10.9962 14.2496 10.7038 14.3676C10.6622 14.3845 10.6208 14.4019 10.5797 14.42C10.5329 14.4423 10.4946 14.474 10.4649 14.5153C10.4284 14.5514 10.4029 14.5946 10.3883 14.6449C10.3694 14.6961 10.3645 14.748 10.3736 14.8007C10.3733 14.8528 10.3864 14.9022 10.4128 14.9483C10.4625 15.0346 10.5391 15.1122 10.6378 15.1398C10.6722 15.1463 10.7067 15.1526 10.7411 15.159C10.8117 15.1623 10.8785 15.1477 10.9413 15.1155Z" fill="white"/>
    <path d="M9.58627 16.0879C9.67424 15.9885 9.76759 15.8944 9.86554 15.8049C9.90546 15.7713 9.93453 15.7307 9.9527 15.683C9.97952 15.6375 9.99325 15.5879 9.99389 15.5339C9.9986 15.4801 9.98984 15.4291 9.96765 15.3814C9.95428 15.332 9.92938 15.2889 9.89298 15.2513C9.8676 15.2297 9.84219 15.208 9.81681 15.1862C9.75753 15.1479 9.69258 15.1268 9.62194 15.1231C9.58703 15.1259 9.55212 15.1289 9.51721 15.1319C9.44998 15.1472 9.39075 15.1778 9.33952 15.224C9.24158 15.3134 9.1482 15.4078 9.06025 15.507C9.02033 15.5406 8.99126 15.5812 8.97308 15.6289C8.94626 15.6744 8.93254 15.724 8.93189 15.778C8.92721 15.8318 8.93595 15.8825 8.95813 15.9305C8.97151 15.9797 8.9964 16.023 9.0328 16.0604C9.05821 16.0821 9.08359 16.1039 9.10898 16.1255C9.16827 16.164 9.23323 16.1851 9.30386 16.1888C9.33875 16.1858 9.37367 16.183 9.40858 16.18C9.47581 16.1647 9.53503 16.1338 9.58627 16.0879Z" fill="white"/>
    <path d="M31.1914 24.1382L31.8379 24.0386C32.8814 23.8779 33.6515 22.9801 33.6515 21.9244V19.8621C33.6515 18.8064 32.8814 17.9086 31.8379 17.7479L31.1914 17.6483V24.1382Z" fill="#ABB7C6"/>
    <path d="M7.80587 24.1382L7.15936 24.0386C6.11592 23.8779 5.3457 22.9801 5.3457 21.9244V19.8621C5.3457 18.8064 6.11592 17.9086 7.15936 17.7479L7.80587 17.6483V24.1382Z" fill="#CBD3DB"/>
    <path d="M34.6438 44.8376C34.3396 45.3017 33.9117 45.6021 33.4061 45.706C33.1564 45.7572 32.502 45.8281 31.8198 45.3812C31.086 44.9004 30.5733 43.9891 30.2955 42.6726C30.1629 42.0446 30.0473 41.4245 29.9353 40.8246C29.8396 40.3118 29.7487 39.8264 29.6483 39.3347C29.8614 38.0678 29.9694 36.7126 29.9694 35.2936C29.9694 34.5493 29.824 33.8397 29.5373 33.1841C29.2899 32.6191 28.9369 32.0931 28.4864 31.6168C29.7118 31.7466 30.912 32.586 31.9781 34.0678C32.6065 34.9413 33.1801 36.0278 33.6826 37.2972C34.2151 38.6418 34.669 40.195 35.0318 41.9139C35.2683 43.0347 35.1269 44.1004 34.6438 44.8376ZM29.0001 40.4518C28.6691 41.8745 28.189 43.1697 27.5733 44.3016C26.9803 45.3919 26.2619 46.3307 25.4378 47.092C23.8274 48.5803 21.8356 49.3668 19.6778 49.3668C17.52 49.3668 15.5282 48.5803 13.9177 47.092C13.0936 46.3307 12.3752 45.3919 11.7822 44.3016C11.1666 43.1697 10.6865 41.8745 10.3552 40.4516C10.3214 40.3072 10.2896 40.1625 10.2605 40.0211C9.95719 38.5669 9.8034 36.9764 9.8034 35.2936C9.8034 33.9215 10.3219 32.7221 11.3444 31.729C12.2974 30.8035 13.6845 30.0893 15.3674 29.6551V30.1684C15.3674 30.868 15.8316 31.5166 16.6745 31.9944C17.4802 32.4513 18.5468 32.7028 19.6778 32.7028C20.8089 32.7028 21.8754 32.4513 22.681 31.9944C23.5239 31.5166 23.9882 30.868 23.9882 30.1684V29.6551C25.671 30.0893 27.0582 30.8035 28.0112 31.729C29.0335 32.7221 29.5521 33.9215 29.5521 35.2936C29.5521 36.9764 29.3984 38.5669 29.095 40.0216C29.0658 40.1637 29.0338 40.3083 29.0001 40.4518ZM9.06123 40.8563C9.02298 41.0613 8.98457 41.2669 8.9453 41.4741C8.85621 41.9454 8.77879 42.3353 8.70168 42.7011C8.42394 44.0176 7.91111 44.9287 7.17741 45.4095C6.49524 45.8567 5.84091 45.7855 5.59119 45.7343C5.08564 45.6304 4.65761 45.3302 4.35338 44.8659C3.87029 44.1287 3.72891 43.063 3.96548 41.9422C4.60383 38.9179 5.49983 36.4736 6.62856 34.6777C7.64306 33.0633 8.82056 32.0447 10.0338 31.7317C10.3076 31.661 10.5849 31.6265 10.8589 31.6274C10.4131 32.1008 10.0637 32.6235 9.81833 33.1841C9.53155 33.8397 9.38613 34.5493 9.38613 35.2936C9.38613 36.3579 9.44684 37.3865 9.56699 38.3685C9.37282 39.1884 9.2213 39.9991 9.06123 40.8563ZM9.76309 27.4132C8.52773 26.7451 7.76032 25.4567 7.76032 24.0504V17.5607C7.76032 16.1547 8.52773 14.8663 9.76309 14.1982C10.6856 13.6991 11.8675 13.3031 13.2758 13.021C15.0075 12.6742 17.0941 12.4985 19.4778 12.4985C21.8613 12.4985 23.9479 12.6742 25.6796 13.021C27.0879 13.3031 28.2699 13.6991 29.1923 14.1982C30.4277 14.8663 31.1952 16.1547 31.1952 17.5607V24.0504C31.1952 25.4567 30.4277 26.7451 29.1923 27.4132C28.2699 27.9123 27.0879 28.3083 25.6796 28.5901C23.9479 28.9369 21.8613 29.1129 19.4778 29.1129C17.0941 29.1129 15.0075 28.9369 13.2758 28.5901C11.8675 28.3083 10.6856 27.9123 9.76309 27.4132ZM6.01983 23.1814C5.71978 22.8315 5.55454 22.3853 5.55454 21.9244V19.8622C5.55454 19.4016 5.71978 18.9551 6.01983 18.6053C6.31984 18.2555 6.73589 18.0243 7.19123 17.9541L7.34304 17.9309V23.8557L7.1913 23.8323C6.73587 23.7623 6.31984 23.5312 6.01983 23.1814ZM16.5843 11.4145C17.2375 11.102 18.2493 10.9504 19.6778 10.9504C22.535 10.9504 23.3538 11.5626 23.6391 12.2896C22.3776 12.151 20.9857 12.0812 19.4778 12.0812C18.1346 12.0812 16.8839 12.1366 15.7353 12.2467C15.8934 11.8784 16.1641 11.6153 16.5843 11.4145ZM32.9775 18.6053C33.2774 18.9551 33.4427 19.4016 33.4427 19.8622V21.9244C33.4427 22.3853 33.2774 22.8315 32.9775 23.1814C32.6775 23.5312 32.2614 23.7623 31.8058 23.8323L31.6125 23.8622V17.9244L31.8058 17.9541C32.2614 18.0243 32.6775 18.2555 32.9775 18.6053ZM15.7846 29.3693C16.9198 29.4762 18.1538 29.5302 19.4778 29.5302C20.9586 29.5302 22.3275 29.4627 23.571 29.3289V30.1684C23.571 30.7113 23.1817 31.2308 22.4752 31.6314C21.7313 32.0533 20.7379 32.2856 19.6778 32.2856C18.6177 32.2856 17.6241 32.0533 16.8803 31.6314C16.1737 31.2308 15.7846 30.7113 15.7846 30.1684V29.3693ZM35.4401 41.8277C35.0724 40.0858 34.6115 38.5099 34.0707 37.1435C33.5554 35.8421 32.9652 34.7254 32.3168 33.8241C31.0726 32.0945 29.6337 31.1816 28.1538 31.1816C28.1424 31.1816 28.1311 31.1816 28.1199 31.1816C28.0921 31.1819 28.0634 31.183 28.0344 31.1849C27.0557 30.3357 25.7206 29.6771 24.1366 29.2626C24.7073 29.1896 25.2496 29.1018 25.7616 28.9993C27.2107 28.7091 28.4317 28.299 29.3908 27.7804C30.692 27.0766 31.5246 25.7525 31.6053 24.2855L31.8694 24.2447C32.4232 24.1596 32.9292 23.8784 33.2941 23.4531C33.659 23.0277 33.86 22.4847 33.86 21.9244V19.8622C33.86 19.3019 33.659 18.759 33.2941 18.3336C32.9292 17.9084 32.4234 17.627 31.8694 17.5417L31.6113 17.502C31.5903 15.9656 30.7439 14.5628 29.3908 13.831C28.4317 13.3124 27.2107 12.9021 25.7616 12.6118C25.2377 12.5071 24.6821 12.4178 24.0967 12.3436C23.9261 11.7546 23.5689 11.3419 22.9819 11.0529C22.2714 10.7031 21.1907 10.5331 19.6778 10.5331C18.1856 10.5331 17.1148 10.6982 16.4043 11.038C15.8147 11.3199 15.4524 11.7214 15.2735 12.2945C14.5343 12.3768 13.84 12.4825 13.1938 12.6118C11.7447 12.9021 10.5237 13.3124 9.5646 13.831C8.20965 14.5637 7.36275 15.9695 7.34392 17.5085L7.12778 17.5417C6.57394 17.627 6.06797 17.9084 5.70309 18.3336C5.33821 18.759 5.13727 19.3019 5.13727 19.8622V21.9244C5.13727 22.4847 5.33821 23.0277 5.70309 23.4531C6.068 23.8784 6.57396 24.1596 7.12778 24.2447L7.34974 24.279C7.42842 25.7485 8.26151 27.0754 9.5646 27.7804C10.5237 28.299 11.7447 28.7091 13.1938 28.9993C13.7871 29.1182 14.4211 29.2172 15.0931 29.2963C13.5222 29.7237 12.203 30.3939 11.2432 31.2533C11.1197 31.2259 10.9951 31.2111 10.8776 31.2101C10.563 31.2069 10.2437 31.2465 9.92956 31.3277C8.61118 31.6678 7.34754 32.7494 6.27527 34.4556C5.12028 36.2935 4.20578 38.7832 3.5572 41.8562C3.29786 43.0848 3.46085 44.2652 4.00437 45.0947C4.37081 45.6538 4.8905 46.0164 5.50725 46.143C5.6124 46.1647 5.77702 46.1891 5.98151 46.1891C6.36122 46.1891 6.87825 46.1045 7.4061 45.7586C8.23538 45.2152 8.80862 44.2154 9.10996 42.7872C9.18771 42.4186 9.26568 42.0259 9.3553 41.5518C9.39464 41.3443 9.43312 41.1382 9.47141 40.9331C9.56092 40.4537 9.6479 39.9891 9.74081 39.5301C9.77535 39.7241 9.81235 39.9163 9.8519 40.1059C9.88166 40.2504 9.91433 40.3987 9.94887 40.5464C10.2886 42.0057 10.7821 43.3361 11.4156 44.501C12.0304 45.6313 12.7769 46.6061 13.6345 47.3987C15.3235 48.9593 17.4132 49.7841 19.6778 49.7841C21.9422 49.7841 24.0321 48.9593 25.7211 47.3987C26.5786 46.6061 27.325 45.6313 27.9398 44.501C28.5734 43.3361 29.0669 42.0057 29.4065 40.5466C29.4163 40.5049 29.4255 40.4629 29.435 40.421C29.4649 40.5791 29.4946 40.7386 29.525 40.9013C29.6374 41.5033 29.7538 42.126 29.8873 42.7589C30.1887 44.1871 30.762 45.1867 31.5912 45.7301C32.119 46.076 32.636 46.1608 33.0157 46.1608C33.2202 46.1608 33.3848 46.1362 33.49 46.1147C34.1066 45.9879 34.6264 45.6253 34.9929 45.0662C35.5365 44.2367 35.6995 43.0563 35.4401 41.8277Z" fill="#141A2F"/>
    <path d="M9.22196 24.1383V19.1593C9.22196 18.2174 9.73585 17.3541 10.5631 16.9067C11.8685 16.2006 14.5094 15.3591 19.6774 15.3591C24.8453 15.3591 27.4862 16.2006 28.7916 16.9067C29.6189 17.3541 30.1327 18.2174 30.1327 19.1593V24.1383C30.1327 25.0802 29.6189 25.9435 28.7916 26.3909C27.4862 27.0968 24.8453 27.9385 19.6774 27.9385C14.5093 27.9385 11.8685 27.0968 10.5631 26.3909C9.73585 25.9435 9.22196 25.0802 9.22196 24.1383ZM28.99 26.7579C29.9523 26.2374 30.5499 25.2336 30.5499 24.1383V19.1593C30.5499 18.064 29.9523 17.0602 28.99 16.5398C26.5483 15.2191 22.5779 14.9418 19.6774 14.9418C16.7767 14.9418 12.8064 15.2191 10.3646 16.5398C9.40241 17.0602 8.80469 18.064 8.80469 19.1593V24.1383C8.80469 25.2336 9.40241 26.2377 10.3646 26.7579C12.8063 28.0785 16.7767 28.3558 19.6774 28.3558C22.5779 28.3558 26.5483 28.0785 28.99 26.7579Z" fill="#141A2F"/>
    <path d="M11.439 35.2859C11.4281 34.9097 11.4325 34.5305 11.4819 34.1568C11.4779 34.1867 11.4739 34.2163 11.4699 34.2462C11.4884 34.1085 11.5131 33.9715 11.5514 33.838C11.5846 33.7226 11.6261 33.6094 11.6727 33.4989C11.6614 33.5258 11.6501 33.5524 11.6388 33.5793C11.7543 33.3071 11.9066 33.0519 12.0871 32.8182C12.0696 32.8407 12.0521 32.8634 12.0346 32.8862C12.1965 32.6773 12.3801 32.4858 12.5801 32.3131C12.6392 32.2621 12.6997 32.213 12.7613 32.1652C12.7387 32.1826 12.716 32.2002 12.6933 32.2176C12.9515 32.0185 13.2308 31.8476 13.5238 31.7048C13.6096 31.6631 13.6965 31.6239 13.7844 31.5866C13.7577 31.598 13.7309 31.6093 13.7042 31.6207C13.8624 31.5541 14.0236 31.4953 14.1872 31.4436C14.2697 31.4176 14.3436 31.3647 14.3879 31.2892C14.43 31.2173 14.4479 31.1111 14.4218 31.0305C14.3954 30.9491 14.3451 30.8707 14.2674 30.8297C14.1891 30.7884 14.0955 30.7685 14.0086 30.7959C13.6244 30.9171 13.2487 31.0764 12.8985 31.276C12.5699 31.463 12.2599 31.6893 11.9834 31.9475C11.7199 32.1935 11.4859 32.4765 11.2959 32.783C11.2107 32.9207 11.1351 33.0642 11.0706 33.2126C10.9944 33.3883 10.9236 33.567 10.879 33.7536C10.8263 33.9741 10.7994 34.202 10.7822 34.4278C10.7649 34.6554 10.7606 34.884 10.7636 35.1121C10.7643 35.17 10.7656 35.228 10.7673 35.2859C10.7698 35.3738 10.803 35.461 10.8656 35.5236C10.9239 35.5817 11.0195 35.6256 11.1031 35.6219C11.19 35.6181 11.2801 35.5894 11.3406 35.5236C11.3999 35.4589 11.4416 35.3761 11.439 35.2859Z" fill="white"/>
    <path d="M11.5737 36.7872C11.5611 36.7079 11.5496 36.6286 11.5389 36.5494C11.5429 36.579 11.5469 36.6089 11.5509 36.6386C11.5495 36.6282 11.5481 36.6175 11.5467 36.6071C11.5485 36.5609 11.5388 36.5178 11.5178 36.4777C11.5042 36.436 11.4811 36.4001 11.4484 36.3697C11.4179 36.3368 11.3819 36.3138 11.3403 36.3001C11.3002 36.2791 11.2571 36.2695 11.2109 36.2712C11.1811 36.2753 11.1514 36.2793 11.1216 36.2832C11.0647 36.2992 11.0153 36.328 10.9734 36.3697C10.9559 36.3922 10.9384 36.4149 10.9209 36.4376C10.8905 36.49 10.8752 36.5466 10.875 36.6071C10.8908 36.7269 10.907 36.8465 10.926 36.9657C10.9363 37.0095 10.9564 37.0475 10.9861 37.08C11.0098 37.1164 11.0412 37.1454 11.0803 37.1665C11.1188 37.191 11.1605 37.2042 11.2052 37.2063C11.2498 37.2163 11.2945 37.2142 11.3391 37.2003C11.3659 37.1889 11.3926 37.1778 11.4193 37.1665C11.4698 37.1365 11.51 37.0964 11.5398 37.0459C11.5511 37.0192 11.5624 36.9924 11.5737 36.9657C11.5897 36.9061 11.5897 36.8465 11.5737 36.7872Z" fill="white"/>
    </g>
    <rect x="0.5" y="0.5" width="39" height="39" rx="19.5" stroke="#D5D5D5"/>
    <defs>
    <clipPath id="clip0_811_7220">
    <rect width="40" height="40" rx="20" fill="white"/>
    </clipPath>
    </defs>
    </svg>
    