<!DOCTYPE svg PUBLIC "-//W3C//DTD SVG 1.1//EN" "http://www.w3.org/Graphics/SVG/1.1/DTD/svg11.dtd">

<!-- Uploaded to: SVG Repo, www.svgrepo.com, Transformed by: SVG Repo Mixer Tools -->
<svg width="139px" height="139px" viewBox="-2 -2 29.00 29.00" fill="none" xmlns="http://www.w3.org/2000/svg" stroke="#FFFFFF">

<g id="SVGRepo_bgCarrier" stroke-width="0">

<rect x="-2" y="-2" width="29.00" height="29.00" rx="14.5" fill="#3b81f6" strokewidth="0"/>

</g>

<g id="SVGRepo_tracerCarrier" stroke-linecap="round" stroke-linejoin="round"/>

<g id="SVGRepo_iconCarrier"> <path d="M12 22.4199C17.5228 22.4199 22 17.9428 22 12.4199C22 6.89707 17.5228 2.41992 12 2.41992C6.47715 2.41992 2 6.89707 2 12.4199C2 17.9428 6.47715 22.4199 12 22.4199Z" stroke="#FFFFFF" stroke-width="1.725" stroke-linecap="round" stroke-linejoin="round"/> <path d="M16 10.99L13.13 14.05C12.9858 14.2058 12.811 14.3298 12.6166 14.4148C12.4221 14.4998 12.2122 14.5437 12 14.5437C11.7878 14.5437 11.5779 14.4998 11.3834 14.4148C11.189 14.3298 11.0142 14.2058 10.87 14.05L8 10.99" stroke="#FFFFFF" stroke-width="1.725" stroke-linecap="round" stroke-linejoin="round"/> </g>

</svg>